<?xml version="1.0" encoding="UTF-8"?>
<svg version="1.1" xmlns="http://www.w3.org/2000/svg" width="433" height="537">
<path d="M0 0 C5.70496755 5.27277304 7.41136901 10.20173462 7.89453125 17.72265625 C8.29092362 30.04018197 8.29092362 30.04018197 5.81640625 33.796875 C4.4375 35.1875 4.4375 35.1875 2 37 C2.763125 37.845625 3.52625 38.69125 4.3125 39.5625 C9.04936824 44.81146211 10.48962239 51.08837547 11.1875 57.9375 C11.26935547 58.6682373 11.35121094 59.39897461 11.43554688 60.15185547 C12.09393005 66.59322194 12.08829963 72.94841734 11.875 79.4140625 C12.0101099 83.29002777 12.65660027 86.36570338 14 90 C15.46691167 91.24368598 16.93818127 92.48523353 18.47265625 93.64453125 C22.57158721 97.28220144 24.12894176 102.31622816 24.75 107.625 C24.86318028 109.74861947 24.93985816 111.87421723 25 114 C25.03641602 114.81968262 25.07283203 115.63936523 25.11035156 116.48388672 C26.04304255 138.65293248 26.04304255 138.65293248 20 146 C18.68807204 147.35440045 17.35921586 148.69306167 16 150 C16.39832031 150.6290625 16.79664063 151.258125 17.20703125 151.90625 C22.06293937 159.7513181 22.06293937 159.7513181 23.4375 163.875 C25.05122581 168.59277486 27.63575136 172.6794052 30.18359375 176.9453125 C32.92649135 181.55809944 35.46000179 186.27344673 38 191 C38.69759899 192.26710203 39.39553829 193.53401674 40.09375 194.80078125 C52.47295359 217.46110928 64.25737716 243.59507972 63 270 C64.546875 269.938125 64.546875 269.938125 66.125 269.875 C71.2313485 270.03972092 75.61230135 271.39585061 80 274 C86.81954932 281.75815396 90.70223791 290.14629023 90.26953125 300.53125 C89.25076275 309.86257889 84.89931824 315.73585709 78 322 C68.28302385 329.14581751 57.72859093 329.60909349 46 329 C45.09507812 328.79761719 44.19015625 328.59523438 43.2578125 328.38671875 C40.19557479 327.86221783 38.84375478 329.17616386 36.3046875 330.76171875 C27.30867127 335.59517154 16.47091833 337.78780135 6.61035156 340.21264648 C3.02182979 341.11282709 -0.37373284 342.07954892 -3.76171875 343.578125 C-10.45892323 346.5187552 -17.62594715 347.19107205 -24.87109375 347.65625 C-27.29419155 347.89642281 -27.29419155 347.89642281 -30 350 C-40.39798041 351.48542577 -47.58016199 350.26364283 -56.30078125 344.24609375 C-59.20725238 341.82753962 -61.34447316 339.28776904 -63.6015625 336.28515625 C-65.46369761 334.57386449 -66.68665273 334.50521247 -69.1875 334.4375 C-73.06006743 334.73143017 -73.06006743 334.73143017 -76 337 C-84.84223745 337.85021514 -94.1525233 335.44842815 -102.58203125 332.9296875 C-106.79464759 331.78385585 -110.79202106 331.56924566 -115.1328125 331.34375 C-118 331 -118 331 -120.58984375 329.91796875 C-123.4061983 328.84528914 -124.56636094 329.04122348 -127.4375 329.8125 C-132.97989304 331.13331162 -138.41142692 331.36712417 -144.09375 331.55859375 C-145.0528125 331.70425781 -146.011875 331.84992188 -147 332 C-147.66 332.99 -148.32 333.98 -149 335 C-151.5 335.6875 -151.5 335.6875 -155 336 C-155.70125 336.1340625 -156.4025 336.268125 -157.125 336.40625 C-164.10855591 337.23325004 -168.62689077 334.22856257 -174.01733398 330.19238281 C-181.05786577 324.61583924 -185.55757611 318.16834837 -189.66796875 310.25 C-191.15270664 307.74205565 -192.90586729 305.70084257 -194.8125 303.5 C-197.48150779 300.22439953 -198.45079235 298.18440725 -198.4375 293.9375 C-198.293125 292.638125 -198.14875 291.33875 -198 290 C-196.02 290 -194.04 290 -192 290 C-192.33 289.34 -192.66 288.68 -193 288 C-193.13559318 284.99525503 -193.04299016 282.00931153 -193 279 C-190.03 279 -187.06 279 -184 279 C-183.505 277.02 -183.505 277.02 -183 275 C-180.36 275 -177.72 275 -175 275 C-174.67 276.98 -174.34 278.96 -174 281 C-170.37 280.67 -166.74 280.34 -163 280 C-163.09087891 279.23969482 -163.18175781 278.47938965 -163.27539062 277.69604492 C-163.69018681 274.19394197 -164.09514577 270.69076564 -164.5 267.1875 C-164.64308594 265.99189453 -164.78617188 264.79628906 -164.93359375 263.56445312 C-166.20549189 252.45048607 -166.25525059 242.02488802 -164.8125 230.9375 C-164.68230469 229.91817383 -164.55210937 228.89884766 -164.41796875 227.84863281 C-162.2598281 211.71653144 -159.07799503 195.75290014 -155 180 C-154.82662109 179.31212402 -154.65324219 178.62424805 -154.47460938 177.91552734 C-153.43656751 173.99937559 -152.01088116 170.51904202 -150 167 C-149.34 166.67 -148.68 166.34 -148 166 C-148.81791016 165.61134766 -148.81791016 165.61134766 -149.65234375 165.21484375 C-158.59238443 160.21759024 -163.81631803 151.45290291 -167.04296875 141.91796875 C-169.97524864 127.53208552 -166.74240293 114.5508048 -161.79345703 101.15039062 C-158.64327677 92.99634072 -158.64327677 92.99634072 -157.875 84.375 C-158.23995775 68.41823622 -156.38567216 55.03072794 -148.171875 41.14453125 C-146.87647642 38.77395184 -146.75667634 37.88462586 -147.4609375 35.32421875 C-149.42479116 26.8568787 -150.9254146 13.95070163 -146.375 6.25 C-140.61378721 0.79200893 -135.70704153 -2.40560019 -127.60546875 -2.2734375 C-120.88542507 -1.56818554 -114.84109386 0.48241219 -110.375 5.6875 C-109.56618441 6.77916729 -108.76983706 7.88050412 -108 9 C-107.505 9.495 -107.505 9.495 -107 10 C-105.03638316 9.57433578 -103.07429976 9.13995942 -101.12207031 8.66479492 C-90.2386086 6.03969715 -80.14091802 5.52344921 -69 6 C-67.66668755 6.03339642 -66.33335464 6.06598908 -65 6.09765625 C-53.31493162 6.57236215 -42.6724358 9.23551973 -32 14 C-32.06445312 13.26007813 -32.12890625 12.52015625 -32.1953125 11.7578125 C-31.85416079 6.94075034 -28.41241842 4.16524123 -25 1 C-17.03638034 -3.84063156 -8.29252821 -4.70374499 0 0 Z " fill="#E5B47A" transform="translate(272,105)"/>
<path d="M0 0 C6.45815182 -0.18707493 11.1652754 0.44917759 17.0390625 3.16015625 C17.0390625 3.82015625 17.0390625 4.48015625 17.0390625 5.16015625 C17.62429687 5.41925781 18.20953125 5.67835938 18.8125 5.9453125 C21.19701824 7.24633912 22.77113641 8.65886631 24.6640625 10.59765625 C25.54964844 11.49291016 25.54964844 11.49291016 26.453125 12.40625 C29.80130198 16.10903686 30.25629258 18.27247941 30.0390625 23.16015625 C30.6990625 23.16015625 31.3590625 23.16015625 32.0390625 23.16015625 C34.07867294 29.06045788 34.34206877 34.38267099 34.2890625 40.59765625 C34.30066406 41.95213867 34.30066406 41.95213867 34.3125 43.33398438 C34.28814831 51.74140414 32.53671408 58.46532277 29.0390625 66.16015625 C28.6265625 67.31515625 28.2140625 68.47015625 27.7890625 69.66015625 C25.57305947 74.09216231 22.70034594 76.89027951 19.0390625 80.16015625 C18.2346875 80.90265625 17.4303125 81.64515625 16.6015625 82.41015625 C7.82399655 88.40459154 -1.9961262 88.4023937 -12.24609375 86.57421875 C-21.76013003 83.89801242 -29.62343676 77.41731577 -34.91137695 69.05908203 C-38.71486121 62.17759784 -39.43683773 55.33894636 -39.3359375 47.59765625 C-39.34753906 46.70369141 -39.35914063 45.80972656 -39.37109375 44.88867188 C-39.34496348 38.9353262 -38.28013355 34.63108025 -35.9609375 29.16015625 C-35.68270334 27.85335022 -35.42927806 26.54079268 -35.2109375 25.22265625 C-33.22587439 16.9081706 -25.30886988 9.52371741 -18.9609375 4.16015625 C-12.79421888 0.68436939 -6.90507998 0.37349377 0 0 Z " fill="#AE865F" transform="translate(188.9609375,196.83984375)"/>
<path d="M0 0 C2.64 0 5.28 0 8 0 C8.06316406 0.70382812 8.12632813 1.40765625 8.19140625 2.1328125 C9.30495985 11.11157099 12.57596709 18.19216321 17 26 C17.37141113 26.66064453 17.74282227 27.32128906 18.12548828 28.00195312 C19.27648787 30.03158945 20.4453737 32.04938014 21.625 34.0625 C21.984729 34.68165283 22.34445801 35.30080566 22.71508789 35.9387207 C25.49318179 40.5532995 28.54709711 44.56913998 33.25 47.3125 C35.68858192 49.66398971 35.73208354 51.78290496 36.1171875 55.0625 C36 57 36 57 34 60 C31.5 60.6875 31.5 60.6875 28 61 C26.948125 61.20109375 26.948125 61.20109375 25.875 61.40625 C18.89144409 62.23325004 14.37310923 59.22856257 8.98266602 55.19238281 C1.94213423 49.61583924 -2.55757611 43.16834837 -6.66796875 35.25 C-8.15270664 32.74205565 -9.90586729 30.70084257 -11.8125 28.5 C-14.48150779 25.22439953 -15.45079235 23.18440725 -15.4375 18.9375 C-15.293125 17.638125 -15.14875 16.33875 -15 15 C-13.02 15 -11.04 15 -9 15 C-9.33 14.34 -9.66 13.68 -10 13 C-10.13559318 9.99525503 -10.04299016 7.00931153 -10 4 C-7.03 4 -4.06 4 -1 4 C-0.67 2.68 -0.34 1.36 0 0 Z " fill="#AE885D" transform="translate(89,380)"/>
<path d="M0 0 C4.55555556 0.55555556 4.55555556 0.55555556 6 2 C6.12375 3.85625 6.12375 3.85625 6.25 5.75 C6.80430837 10.35565044 8.42833865 11.94920593 12 15 C17.74231448 20.14271538 22.50358453 25.71947364 26.9375 32 C27.64640381 32.97803589 27.64640381 32.97803589 28.36962891 33.97583008 C31.6699704 38.78857851 33.11519466 43.2466844 34 49 C34.928125 49.185625 34.928125 49.185625 35.875 49.375 C38 50 38 50 40 52 C40.125 55.125 40.125 55.125 40 58 C34.97031444 60.51484278 27.45748785 59.93442413 22 59 C14.59405801 56.40070003 7.01764215 50.83995275 3 44 C2.125 41.0625 2.125 41.0625 2 39 C1.26007813 38.90332031 0.52015625 38.80664062 -0.2421875 38.70703125 C-3.36571866 37.90623927 -4.76504534 36.84847809 -7.125 34.6875 C-7.78757813 34.09324219 -8.45015625 33.49898438 -9.1328125 32.88671875 C-10.99490621 31.00514707 -12.59147299 29.24386795 -14 27 C-13.6875 23.75 -13.6875 23.75 -13 21 C-12.01 20.67 -11.02 20.34 -10 20 C-10.515625 19.113125 -11.03125 18.22625 -11.5625 17.3125 C-13.0868937 13.79976669 -13.14947895 12.55293493 -12 9 C-9.8125 8.25 -9.8125 8.25 -7 8 C-4.1875 9.9375 -4.1875 9.9375 -2 12 C-2.02320313 11.30132812 -2.04640625 10.60265625 -2.0703125 9.8828125 C-2.08835938 8.97273438 -2.10640625 8.06265625 -2.125 7.125 C-2.14820313 6.22007812 -2.17140625 5.31515625 -2.1953125 4.3828125 C-2 2 -2 2 0 0 Z " fill="#AD865F" transform="translate(204,396)"/>
<path d="M0 0 C0.99 0 1.98 0 3 0 C2.42644249 3.7456986 1.39935256 6.39705836 -0.58203125 9.6171875 C-1.10216797 10.47183594 -1.62230469 11.32648438 -2.15820312 12.20703125 C-2.70412109 13.08746094 -3.25003906 13.96789062 -3.8125 14.875 C-4.8821288 16.62201737 -5.95115079 18.36940643 -7.01953125 20.1171875 C-7.52822754 20.94573242 -8.03692383 21.77427734 -8.56103516 22.62792969 C-10.43603231 25.71878011 -12.22732256 28.84952726 -14 32 C-13.11054688 32.25910156 -12.22109375 32.51820313 -11.3046875 32.78515625 C-1.79689774 36.28033665 4.89786195 44.53444133 10 53 C10 53.66 10 54.32 10 55 C15.32441459 51.1699034 20.18924052 47.08443447 24.921875 42.5390625 C27 41 27 41 31 41 C29.44298875 44.89252812 26.98565894 47.06142977 23.875 49.8125 C23.3807251 50.25263428 22.8864502 50.69276855 22.37719727 51.14624023 C20.92395396 52.43741004 19.46212671 53.7188985 18 55 C17.28972656 55.62390625 16.57945312 56.2478125 15.84765625 56.890625 C14.57891757 58.00109567 13.30809522 59.1091904 12.03515625 60.21484375 C9.62644157 62.32767025 7.25107739 64.47555294 4.875 66.625 C3.61236328 67.75615234 3.61236328 67.75615234 2.32421875 68.91015625 C0.93992249 70.15485961 -0.43587537 71.40928603 -1.79296875 72.68359375 C-4.20575473 74.87308848 -5.58353507 75.95473207 -8.875 76.3125 C-9.57625 76.209375 -10.2775 76.10625 -11 76 C-11.66 74.35 -12.32 72.7 -13 71 C-13.556875 71.33 -14.11375 71.66 -14.6875 72 C-17.35263324 73.15249005 -19.12393149 73.30274405 -22 73 C-22.66 72.34 -23.32 71.68 -24 71 C-23.80819719 68.98607045 -23.61014 66.970057 -23.2890625 64.97265625 C-22.92750684 62.83757027 -22.92750684 62.83757027 -23 60 C-23.61488281 60.2165625 -24.22976562 60.433125 -24.86328125 60.65625 C-25.67152344 60.9346875 -26.47976562 61.213125 -27.3125 61.5 C-28.11300781 61.7784375 -28.91351563 62.056875 -29.73828125 62.34375 C-32 63 -32 63 -35 63 C-34.97190785 56.14551562 -33.92230014 52.11477594 -29.48046875 46.87109375 C-27.360805 44.19215196 -26.33293997 41.12951124 -25 38 C-23.80342668 36.56369869 -22.60466995 35.12908703 -21.38891602 33.70898438 C-18.91703842 30.66747564 -16.85561896 27.36314874 -14.75 24.0625 C-14.27691406 23.32974854 -13.80382812 22.59699707 -13.31640625 21.84204102 C-10.93051814 18.12208645 -8.6114476 14.37565869 -6.390625 10.5546875 C-5.98618164 9.86109131 -5.58173828 9.16749512 -5.16503906 8.45288086 C-4.4012447 7.13160625 -3.64757796 5.80441358 -2.90527344 4.47094727 C-1.875 2.68359375 -1.875 2.68359375 0 0 Z " fill="#AD865E" transform="translate(203,322)"/>
<path d="M0 0 C0.99 0 1.98 0 3 0 C3.0501123 0.61818604 3.10022461 1.23637207 3.15185547 1.87329102 C4.56414081 22.59713686 4.56414081 22.59713686 8.1875 43 C9.15588953 46.99460683 8.91716316 49.99783348 8 54 C7 55 7 55 4.4375 55.0625 C3.633125 55.041875 2.82875 55.02125 2 55 C1.7525 55.598125 1.505 56.19625 1.25 56.8125 C-0.26021293 59.45537263 -1.28026227 60.60337792 -4 62 C-7.5 61.6875 -7.5 61.6875 -11 61 C-14.91135042 60.93964284 -14.91135042 60.93964284 -18.4375 61.3125 C-22 61 -22 61 -24.5625 59.125 C-32.65648855 48.7480916 -32.65648855 48.7480916 -33.4375 42.5 C-29.4197718 32.71770526 -18.7528194 23.50023386 -9.25 19 C-6 18 -6 18 0 18 C0 12.06 0 6.12 0 0 Z " fill="#AD865F" transform="translate(147,335)"/>
<path d="M0 0 C5.70487317 5.27268581 7.40572169 10.20027169 7.8984375 17.71875 C8.27375566 29.84441351 8.27375566 29.84441351 5.375 34.75 C3 36 3 36 -0.5 36.125 C-4.96093674 34.69112748 -5.66891248 32.96284878 -8 29 C-12.98396494 24.01603506 -19.79313232 21.93290696 -26.4375 20 C-29.50158343 18.80426013 -30.53196701 17.93606599 -32 15 C-32.625 12.25 -32.625 12.25 -32 9 C-28.10909535 3.10773923 -23.70986607 -0.3287572 -17.0625 -2.6875 C-10.86717074 -3.62618625 -5.46484879 -3.09980919 0 0 Z " fill="#AE885E" transform="translate(272,105)"/>
<path d="M0 0 C3.93024779 2.10462343 5.96381095 4.74717603 8.53125 8.35546875 C7.9382585 9.81838179 7.33141177 11.27568388 6.71875 12.73046875 C6.38230469 13.54257813 6.04585937 14.3546875 5.69921875 15.19140625 C4.53125 17.35546875 4.53125 17.35546875 1.53125 19.35546875 C-0.24750415 19.75197122 -2.04241694 20.07909984 -3.84375 20.35546875 C-10.6076646 21.18570775 -10.6076646 21.18570775 -15.76953125 25.125 C-16.10339844 25.79917969 -16.43726563 26.47335938 -16.78125 27.16796875 C-19.38197288 31.70065719 -22.68684752 34.27464089 -27.46875 36.35546875 C-28.45875 36.35546875 -29.44875 36.35546875 -30.46875 36.35546875 C-33.003249 27.82838314 -33.28731333 17.02861695 -31.46875 8.35546875 C-24.35914178 -3.67617594 -12.0027928 -4.66962585 0 0 Z " fill="#AF895D" transform="translate(155.46875,105.64453125)"/>
<path d="M0 0 C2.82437659 0.34761558 3.85574883 0.84365034 5.81640625 2.96875 C12.38916119 12.49703905 15.48972502 20.64516759 13.63671875 32.28125 C11.43767706 40.77822742 4.91507806 47.57697098 -2.5 52 C-11.46576747 56.36714663 -20.15953917 56.25196059 -30 56 C-24.80429291 49.1886256 -18.45216596 44.82836559 -11.125 40.5 C-6.21142532 37.42987245 -4.49303285 35.5739893 -3 30 C-2.62875 28.88625 -2.2575 27.7725 -1.875 26.625 C0.25591674 17.79691635 0.11582498 9.04721819 0 0 Z " fill="#AE875E" transform="translate(348,378)"/>
<path d="M0 0 C7.25878332 6.48105654 10.62355842 15.29546226 11.25390625 24.84765625 C11.50051446 34.83884547 11.61853372 44.97753488 5 53 C4.01 53.66 3.02 54.32 2 55 C2 54.34 2 53.68 2 53 C-0.3817123 52.67629613 -0.3817123 52.67629613 -3 53 C-4.6326755 54.61226418 -4.6326755 54.61226418 -5.8125 56.875 C-13.41021879 69.17054491 -22.64826893 78.07499869 -36 84 C-36.99 84 -37.98 84 -39 84 C-38.9140625 82.2421875 -38.9140625 82.2421875 -38 80 C-35.79858992 78.54222978 -33.70837453 77.3257609 -31.375 76.125 C-17.8480374 68.72390416 -11.7849969 59.37844828 -5.359375 45.3359375 C-4 43 -4 43 -1 42 C-0.67 42.66 -0.34 43.32 0 44 C0.495 43.01 0.495 43.01 1 42 C1.66 42 2.32 42 3 42 C3.5840044 23.57373836 3.5840044 23.57373836 0.65625 5.4765625 C0 3 0 3 0 0 Z " fill="#DC946A" transform="translate(285,197)"/>
<path d="M0 0 C3.85544798 1.99657127 5.59805092 3.39707638 8 7 C7.625 9.6875 7.625 9.6875 7 12 C3.66666667 12.66666667 0.33333333 13.33333333 -3 14 C-3.8353125 14.185625 -4.670625 14.37125 -5.53125 14.5625 C-8.01797009 15.00318457 -10.2907653 15.10013783 -12.8125 15.0625 C-13.60269531 15.05347656 -14.39289063 15.04445312 -15.20703125 15.03515625 C-15.79871094 15.02355469 -16.39039063 15.01195312 -17 15 C-18.42662219 12.14675563 -18.31033868 10.16545451 -18 7 C-13.4963421 -0.07717669 -7.95786289 -1.04180224 0 0 Z " fill="#413121" transform="translate(237,186)"/>
<path d="M0 0 C0.99 0 1.98 0 3 0 C2.42740535 3.67894091 1.44812568 6.33300481 -0.4765625 9.51171875 C-0.97865234 10.34638672 -1.48074219 11.18105469 -1.99804688 12.04101562 C-2.53494141 12.91435547 -3.07183594 13.78769531 -3.625 14.6875 C-4.44967773 16.04584961 -4.44967773 16.04584961 -5.29101562 17.43164062 C-7.90879116 21.71218267 -10.555236 25.93446762 -13.5 30 C-17.05697584 34.99485765 -20.2172746 40.18449608 -23.375 45.4375 C-23.91189453 46.32759766 -24.44878906 47.21769531 -25.00195312 48.13476562 C-25.50404297 48.97587891 -26.00613281 49.81699219 -26.5234375 50.68359375 C-26.97638184 51.44212646 -27.42932617 52.20065918 -27.89599609 52.98217773 C-29.13174721 55.09868949 -29.13174721 55.09868949 -30 58 C-29.071875 57.505 -28.14375 57.01 -27.1875 56.5 C-24 55 -24 55 -21 55 C-21.1953125 56.859375 -21.1953125 56.859375 -22 59 C-24.1796875 60.265625 -24.1796875 60.265625 -26.875 61.25 C-27.75929687 61.58515625 -28.64359375 61.9203125 -29.5546875 62.265625 C-32 63 -32 63 -35 63 C-34.97190785 56.14551562 -33.92230014 52.11477594 -29.48046875 46.87109375 C-27.360805 44.19215196 -26.33293997 41.12951124 -25 38 C-23.80342668 36.56369869 -22.60466995 35.12908703 -21.38891602 33.70898438 C-18.91703842 30.66747564 -16.85561896 27.36314874 -14.75 24.0625 C-14.27691406 23.32974854 -13.80382812 22.59699707 -13.31640625 21.84204102 C-10.93051814 18.12208645 -8.6114476 14.37565869 -6.390625 10.5546875 C-5.98618164 9.86109131 -5.58173828 9.16749512 -5.16503906 8.45288086 C-4.4012447 7.13160625 -3.64757796 5.80441358 -2.90527344 4.47094727 C-1.875 2.68359375 -1.875 2.68359375 0 0 Z " fill="#C58A46" transform="translate(203,322)"/>
<path d="M0 0 C-1.55701125 3.89252812 -4.01434106 6.06142977 -7.125 8.8125 C-7.6192749 9.25263428 -8.1135498 9.69276855 -8.62280273 10.14624023 C-10.07604604 11.43741004 -11.53787329 12.7188985 -13 14 C-13.71027344 14.62390625 -14.42054688 15.2478125 -15.15234375 15.890625 C-16.42108243 17.00109567 -17.69190478 18.1091904 -18.96484375 19.21484375 C-21.37355843 21.32767025 -23.74892261 23.47555294 -26.125 25.625 C-26.96675781 26.37910156 -27.80851562 27.13320313 -28.67578125 27.91015625 C-30.06007751 29.15485961 -31.43587537 30.40928603 -32.79296875 31.68359375 C-35.20575473 33.87308848 -36.58353507 34.95473207 -39.875 35.3125 C-40.57625 35.209375 -41.2775 35.10625 -42 35 C-42.66 33.35 -43.32 31.7 -44 30 C-44.556875 30.33 -45.11375 30.66 -45.6875 31 C-48.35263324 32.15249005 -50.12393149 32.30274405 -53 32 C-53.66 31.34 -54.32 30.68 -55 30 C-54.96712417 27.27130593 -54.43602229 24.7033382 -54 22 C-52.68 21.67 -51.36 21.34 -50 21 C-50.33 23.31 -50.66 25.62 -51 28 C-46.10437307 26.12297673 -46.10437307 26.12297673 -42 23 C-41.01 23 -40.02 23 -39 23 C-39.33 25.64 -39.66 28.28 -40 31 C-33.98811225 27.18758338 -28.57887357 23.04449113 -24.0625 17.5 C-21.41567217 14.29999916 -18.53045566 12.01365286 -15.15234375 9.62109375 C-11.90233357 7.17326394 -9.01013447 4.3550572 -6.078125 1.5390625 C-4 0 -4 0 0 0 Z " fill="#C68A46" transform="translate(234,363)"/>
<path d="M0 0 C6.55801686 -0.54650141 11.56567931 0.08371725 17 4 C19.45914561 6.92023542 19.95709845 8.44227987 20.25 12.25 C20 15 20 15 19 16 C12.20540032 16.61769088 5.46556543 15.04274386 -1 13 C-1.33 12.34 -1.66 11.68 -2 11 C0.31 11 2.62 11 5 11 C4.67 9.35 4.34 7.7 4 6 C2.02 5.34 0.04 4.68 -2 4 C-1.34 2.68 -0.68 1.36 0 0 Z " fill="#423222" transform="translate(141,183)"/>
<path d="M0 0 C2.83346923 0.46193385 5.65852512 0.93094979 8.47265625 1.5 C24.27592159 4.55100749 39.04492601 4.67855139 54.6796875 0.91015625 C58.55928806 -0.00264043 62.02395655 -0.17494591 66 0 C66 0.99 66 1.98 66 3 C46.12441073 7.96295761 19.17931977 13.73295267 0 3 C0 2.01 0 1.02 0 0 Z " fill="#C78B46" transform="translate(157,286)"/>
<path d="M0 0 C0.99 0 1.98 0 3 0 C3.0501123 0.61818604 3.10022461 1.23637207 3.15185547 1.87329102 C4.56414081 22.59713686 4.56414081 22.59713686 8.1875 43 C9.15588953 46.99460683 8.91716316 49.99783348 8 54 C7.505 54.495 7.505 54.495 7 55 C1.77723105 54.69868641 -1.31886806 53.7926814 -5 50 C-5 49.01 -5 48.02 -5 47 C-1.51460083 47.64544429 1.02819057 49.10134397 4 51 C3.4987313 45.30824707 2.82099205 39.70244384 1.8449707 34.07324219 C-0.10464618 22.65822948 -0.31325112 11.55548581 0 0 Z " fill="#C58A45" transform="translate(147,335)"/>
<path d="M0 0 C0.66 0 1.32 0 2 0 C1.34732058 11.74822949 -4.97727903 20.69667512 -13 29 C-16.1707884 31.64315328 -19.46708677 33.87140596 -23 36 C-23.83402344 36.50660156 -24.66804688 37.01320313 -25.52734375 37.53515625 C-31.48224234 41 -31.48224234 41 -35 41 C-34.9140625 39.2421875 -34.9140625 39.2421875 -34 37 C-31.79858992 35.54222978 -29.70837453 34.3257609 -27.375 33.125 C-13.02044918 25.27110039 -6.99602734 14.68396947 0 0 Z " fill="#C78B47" transform="translate(281,240)"/>
<path d="M0 0 C3.09443084 0.5415254 4.42308202 1.05289047 6.5 3.4375 C6.93422916 6.91133326 7.10216895 9.3040055 5.4375 12.4375 C2.26911701 14.07279445 -0.13849919 13.2778752 -3.5 12.4375 C-5.4375 11.1875 -5.4375 11.1875 -6.5 9.4375 C-6.9375 7 -6.9375 7 -6.5 4.4375 C-4.50108769 1.69824979 -3.36650098 0.58913767 0 0 Z " fill="#E1B178" transform="translate(138.5,112.5625)"/>
<path d="M0 0 C2.59814888 2.25172903 2.95716454 3.65017705 3.375 7.0625 C3 10 3 10 1.875 11.875 C-0.88090884 13.52854531 -2.85075452 13.39365568 -6 13 C-7.875 11.9375 -7.875 11.9375 -9 10 C-9.63316583 4.09045226 -9.63316583 4.09045226 -7.875 1.0625 C-5.07837528 -0.52225401 -3.1506804 -0.45947423 0 0 Z " fill="#E1B278" transform="translate(261,114)"/>
<path d="M0 0 C0.66 0 1.32 0 2 0 C2.59022272 9.44356349 -0.84632148 15.49270014 -6.80859375 22.5859375 C-13.51157663 29.96997211 -13.51157663 29.96997211 -17 32 C-19.234375 31.67578125 -19.234375 31.67578125 -21 31 C-18.66099513 27.78386831 -16.19639934 25.29550866 -13.125 22.8125 C-6.06892102 16.75504672 -2.4333861 8.83703372 0 0 Z " fill="#C78B46" transform="translate(329,397)"/>
<path d="M0 0 C1.65 0 3.3 0 5 0 C4.11919477 5.75114006 1.70870244 10.52397981 -2 15 C-5.375 15.625 -5.375 15.625 -8 15 C-7.67 11.37 -7.34 7.74 -7 4 C-6.34 4 -5.68 4 -5 4 C-4.67 4.66 -4.34 5.32 -4 6 C-3.67 5.34 -3.34 4.68 -3 4 C-2.34 4 -1.68 4 -1 4 C-0.67 2.68 -0.34 1.36 0 0 Z " fill="#CD8D71" transform="translate(289,235)"/>
<path d="M0 0 C1.65 0 3.3 0 5 0 C6.16063604 4.25566547 5.76173392 7.6835078 5 12 C2.10765685 12.82638376 0.11257569 13 -3 13 C-3.31563182 7.73946963 -2.66590937 4.55426184 0 0 Z " fill="#D99470" transform="translate(243,210)"/>
<path d="M0 0 C1.875 0.1875 1.875 0.1875 4 1 C4.309375 1.804375 4.61875 2.60875 4.9375 3.4375 C5.73388622 6.18837935 5.73388622 6.18837935 8.234375 6.99609375 C9.60335937 7.49302734 9.60335937 7.49302734 11 8 C12.77948425 8.85726979 14.55053724 9.7322722 16.3125 10.625 C17.19550781 11.07101562 18.07851562 11.51703125 18.98828125 11.9765625 C19.98408203 12.48316406 19.98408203 12.48316406 21 13 C21 13.66 21 14.32 21 15 C13.47632124 14.37302677 7.62916996 12.14596445 2.5 6.4375 C0.39327796 3.92176012 0 3.40661324 0 0 Z " fill="#C88C47" transform="translate(142,419)"/>
<path d="M0 0 C2.375 0.69921875 2.375 0.69921875 5 2 C6.1875 4.20703125 6.1875 4.20703125 7 6.8125 C8.5852497 11.30296242 10.40510523 13.7937425 14 17 C14.33 17.99 14.66 18.98 15 20 C11.69775208 19.71695018 10.11533201 19.09226561 7.5 17 C3.19834467 11.8380136 -0.42646089 6.92085107 0 0 Z " fill="#C48A48" transform="translate(114,376)"/>
<path d="M0 0 C-0.69941596 3.14737182 -1.76078698 6.02588876 -3 9 C-8.20955943 8.45162532 -13.06836739 7.81162014 -18 6 C-18.33 5.01 -18.66 4.02 -19 3 C-18.19175781 3.03480469 -17.38351563 3.06960938 -16.55078125 3.10546875 C-14.94783203 3.14607422 -14.94783203 3.14607422 -13.3125 3.1875 C-11.72888672 3.23970703 -11.72888672 3.23970703 -10.11328125 3.29296875 C-6.18719645 2.92351284 -3.69926189 0 0 0 Z " fill="#C88D48" transform="translate(232,399)"/>
<path d="M0 0 C0.33 0.99 0.66 1.98 1 3 C2.32 2.67 3.64 2.34 5 2 C5 2.66 5 3.32 5 4 C5.99 4 6.98 4 8 4 C8.33 5.98 8.66 7.96 9 10 C8.01 10.33 7.02 10.66 6 11 C5.01 10.34 4.02 9.68 3 9 C2.01 9.33 1.02 9.66 0 10 C-0.33 9.34 -0.66 8.68 -1 8 C-1.66 8 -2.32 8 -3 8 C-2.25 2.25 -2.25 2.25 0 0 Z " fill="#D99470" transform="translate(128,210)"/>
<path d="M0 0 C0.66 0.33 1.32 0.66 2 1 C1.67 1.33 1.34 1.66 1 2 C3.97 3.485 3.97 3.485 7 5 C7 6.65 7 8.3 7 10 C2.545 10.495 2.545 10.495 -2 11 C-4 8 -4 8 -3.8125 5.5 C-2.95559826 2.86337925 -2.11007147 1.74310252 0 0 Z " fill="#64503C" transform="translate(139,184)"/>
<path d="M0 0 C3 0 3 0 4.68359375 1.64453125 C5.26238281 2.35996094 5.84117187 3.07539063 6.4375 3.8125 C8.28066886 6.07625772 9.83362404 7.88216255 12.22265625 9.57421875 C12.80917969 10.04472656 13.39570313 10.51523437 14 11 C14 11.99 14 12.98 14 14 C9.68994837 13.47942538 7.42437774 12.10575283 4.1875 9.25 C3.39730469 8.57453125 2.60710937 7.8990625 1.79296875 7.203125 C0 5 0 5 -0.26171875 2.234375 C-0.17535156 1.49703125 -0.08898437 0.7596875 0 0 Z " fill="#C88C47" transform="translate(124,266)"/>
<path d="M0 0 C7.16090698 5.67240384 11.40258405 10.85116321 13 20 C12.625 23 12.625 23 12 25 C10.50640668 22.14383032 9.34907722 19.27728288 8.25 16.25 C6.5032317 11.77059796 4.2616339 8.35475901 1.171875 4.69140625 C0 3 0 3 0 0 Z " fill="#FFFF00" transform="translate(284,193)"/>
<path d="M0 0 C0.99 0 1.98 0 3 0 C4.24122431 3.72367292 4.45060151 6.07332966 4 10 C2.35073313 12.98538181 0.49438829 15.66340757 -2 18 C-2.99 18 -3.98 18 -5 18 C-3.99999372 15.30767541 -3.03302101 13.04699143 -1.375 10.6875 C0.54198878 6.94065829 0.21242465 4.17768479 0 0 Z " fill="#C78B46" transform="translate(246,339)"/>
<path d="M0 0 C0.33 0 0.66 0 1 0 C2.07275343 25.1585436 2.07275343 25.1585436 -5.54296875 33.73828125 C-7 35 -7 35 -9 35 C-7.70866528 32.26514424 -6.235596 29.9368842 -4.45703125 27.5 C-1.16473564 22.28649332 -1.00097172 17.0352748 -0.6875 11 C-0.61466797 9.93910156 -0.54183594 8.87820312 -0.46679688 7.78515625 C-0.29149617 5.1907058 -0.13641808 2.59673575 0 0 Z " fill="#FFFF00" transform="translate(296,219)"/>
<path d="M0 0 C1.9375 0.3125 1.9375 0.3125 4 1 C4.33 1.99 4.66 2.98 5 4 C7.31 4.33 9.62 4.66 12 5 C12 6.32 12 7.64 12 9 C7.67403972 8.74553175 5.47997699 8.3880665 2.0625 5.625 C0 3 0 3 0 0 Z " fill="#C48A47" transform="translate(131,388)"/>
<path d="M0 0 C0.66 0 1.32 0 2 0 C2 2.97 2 5.94 2 9 C0.35 9.66 -1.3 10.32 -3 11 C-3.3227506 6.37390802 -2.84450614 3.71973879 0 0 Z " fill="#D8926F" transform="translate(253,210)"/>
<path d="M0 0 C3.37462715 0.54723683 5.08235 1.0549 8 3 C7.67 4.32 7.34 5.64 7 7 C2.25 6.25 2.25 6.25 0 4 C0 2.68 0 1.36 0 0 Z " fill="#422F19" transform="translate(169,232)"/>
<path d="M0 0 C5.96177946 5.32301737 8.34918293 10.48092221 8.921875 18.27734375 C8.96054687 19.13005859 8.96054687 19.13005859 9 20 C7.23330428 17.34995642 6.0724893 14.83315358 4.86328125 11.90625 C3.96748402 9.92820001 2.92861444 8.11150535 1.8125 6.25 C0 3 0 3 0 0 Z " fill="#FF9667" transform="translate(285,197)"/>
<path d="M0 0 C1.4540625 0.0309375 1.4540625 0.0309375 2.9375 0.0625 C3.5 2 3.5 2 3.9375 4.0625 C2.9375 5.0625 2.9375 5.0625 -0.125 5.125 C-1.094375 5.104375 -2.06375 5.08375 -3.0625 5.0625 C-3.625 3.125 -3.625 3.125 -4.0625 1.0625 C-3.0625 0.0625 -3.0625 0.0625 0 0 Z " fill="#DCCAC0" transform="translate(227.0625,192.9375)"/>
<path d="M0 0 C1.4540625 0.0309375 1.4540625 0.0309375 2.9375 0.0625 C3.5 2 3.5 2 3.9375 4.0625 C2.9375 5.0625 2.9375 5.0625 -0.125 5.125 C-1.094375 5.104375 -2.06375 5.08375 -3.0625 5.0625 C-3.625 3.125 -3.625 3.125 -4.0625 1.0625 C-3.0625 0.0625 -3.0625 0.0625 0 0 Z " fill="#D7C5BC" transform="translate(142.0625,187.9375)"/>
<path d="M0 0 C1 3 1 3 0.109375 4.97265625 C-0.33921875 5.66230469 -0.7878125 6.35195312 -1.25 7.0625 C-1.68828125 7.75472656 -2.1265625 8.44695312 -2.578125 9.16015625 C-4 11 -4 11 -7 13 C-6.42176162 8.22953336 -4.53971712 5.00197849 -2 1 C-1.34 0.67 -0.68 0.34 0 0 Z " fill="#FF906E" transform="translate(294,239)"/>
<path d="M0 0 C0.33 0 0.66 0 1 0 C1.21278058 4.46839215 0.59138085 7.82262526 -1 12 C-1.99 12 -2.98 12 -4 12 C-3.53439347 7.25081338 -2.83067342 3.89217595 0 0 Z " fill="#D9926F" transform="translate(125,204)"/>
<path d="M0 0 C0.66 0 1.32 0 2 0 C2.33 0.66 2.66 1.32 3 2 C3.66 1.34 4.32 0.68 5 0 C5.3125 3.25 5.3125 3.25 5 7 C2.5 9.4375 2.5 9.4375 0 11 C-1.26026798 8.47946405 -0.91874445 7.1457902 -0.5625 4.375 C-0.46066406 3.55773437 -0.35882813 2.74046875 -0.25390625 1.8984375 C-0.17011719 1.27195313 -0.08632813 0.64546875 0 0 Z " fill="#D9956C" transform="translate(282,239)"/>
<path d="M0 0 C0.33 0 0.66 0 1 0 C1 5.28 1 10.56 1 16 C0.01 15.67 -0.98 15.34 -2 15 C-2 11.7 -2 8.4 -2 5 C-1.67 5 -1.34 5 -1 5 C-0.67 3.35 -0.34 1.7 0 0 Z " fill="#E37F7F" transform="translate(295,218)"/>
<path d="M0 0 C-0.33 1.65 -0.66 3.3 -1 5 C-2.98 5.33 -4.96 5.66 -7 6 C-6.6875 4.125 -6.6875 4.125 -6 2 C-3 0 -3 0 0 0 Z " fill="#45321B" transform="translate(199,231)"/>
<path d="M0 0 C0.33 1.32 0.66 2.64 1 4 C-0.98 4.99 -0.98 4.99 -3 6 C-2.67 6.99 -2.34 7.98 -2 9 C-2.99 8.67 -3.98 8.34 -5 8 C-5 6.35 -5 4.7 -5 3 C-3.35 3 -1.7 3 0 3 C0 2.01 0 1.02 0 0 Z " fill="#DD8677" transform="translate(294,214)"/>
<path d="M0 0 C2.61885488 2.36944013 4.41866551 4.83733102 6 8 C5.67 8.99 5.34 9.98 5 11 C1.7089159 7.39042389 0.45336079 4.87362847 0 0 Z " fill="#C78678" transform="translate(286,202)"/>
<path d="M0 0 C0 3 0 3 -1.3125 4.38671875 C-2.875 5.59114583 -4.4375 6.79557292 -6 8 C-5.65120368 4.74456771 -4.97866739 3.98126893 -2.4375 1.75 C-1.633125 1.1725 -0.82875 0.595 0 0 Z " fill="#AF9755" transform="translate(249,105)"/>
<path d="M0 0 C0.66 0.33 1.32 0.66 2 1 C-0.31 3.31 -2.62 5.62 -5 8 C-5.66 7.67 -6.32 7.34 -7 7 C-4.78071806 4.09197539 -3.07030857 2.04687238 0 0 Z " fill="#BEA446" transform="translate(131,107)"/>
<path d="M0 0 C0.66 0 1.32 0 2 0 C2 1.98 2 3.96 2 6 C1.01 6 0.02 6 -1 6 C-1.042721 4.33388095 -1.04063832 2.66617115 -1 1 C-0.67 0.67 -0.34 0.34 0 0 Z " fill="#D99370" transform="translate(258,212)"/>
</svg>
